<svg width="61" height="56" viewBox="0 0 61 56" fill="none" xmlns="http://www.w3.org/2000/svg">
<mask id="mask0_19_26" style="mask-type:alpha" maskUnits="userSpaceOnUse" x="-3" y="-2" width="42" height="43">
<path d="M6.75734 38.2572C7.00761 38.1821 7.21513 37.8457 7.44143 37.7028C8.41338 37.0889 9.50285 36.694 10.5553 36.2461C11.0733 36.0257 12.4746 35.5363 12.7019 34.8544C12.8041 34.5478 13.2304 34.2963 13.3388 34.0523C13.5224 33.6393 13.6573 33.2384 13.6573 32.7785C13.6573 31.5853 12.7928 31.0815 11.8527 30.4844C10.5802 29.6762 8.99813 28.7031 8.00759 27.5357C7.71706 27.1933 7.02969 26.7203 6.64529 26.4801C5.86767 25.994 5.19707 25.3604 4.42197 24.876C3.46016 24.2748 2.62125 23.4673 1.65608 22.8531C1.20338 22.5651 0.813574 22.2048 0.376348 21.8978C0.0482068 21.6674 1.53889 22.6053 1.63839 22.6644C3.35715 23.6855 5.18473 24.7757 7.23503 24.7757C8.12119 24.7757 9.05567 24.5831 9.90655 24.3511C10.519 24.1841 11.0949 23.9265 11.7406 23.9265C12.7306 23.9265 13.7087 24.5337 14.3473 25.2475C14.8862 25.8497 14.9311 26.5269 14.9311 27.3234C14.9311 28.4363 15.9904 30.2957 17.2429 30.2957C17.8362 30.2957 18.3939 29.7441 18.9414 29.529C19.3568 29.3658 19.7051 28.7976 19.8732 28.4085C20.1716 27.7174 20.8034 26.7404 21.4655 26.3621C22.6835 25.6661 23.9294 24.6275 24.538 23.3426C24.8802 22.6203 25.5655 22.0261 25.9475 21.3316C26.67 20.0179 28.1127 18.8794 29.3326 18.0055C30.2015 17.383 31.0835 16.9185 31.6208 15.9886C32.0071 15.3199 32.2859 14.5899 32.6823 13.9245C33.5143 12.528 34.6694 11.3466 35.4777 9.93784C35.9948 9.03664 36.4728 7.94062 36.0497 6.88299C35.9563 6.64948 35.7877 6.31307 35.4895 6.3994C34.159 6.78455 32.9681 7.97128 31.9333 8.82913C30.3593 10.1341 28.7165 11.3431 27.2921 12.8158C26.3353 13.805 25.5141 14.8853 24.597 15.906C23.2696 17.3833 22.4028 19.2034 21.1824 20.7655C19.8926 22.4164 18.7423 24.2244 17.1014 25.5542C16.1984 26.2859 14.8041 26.8129 13.6809 27.0049C13.2395 27.0804 12.5627 27.3126 12.3835 26.7749C12.1677 26.1276 12.1231 25.3143 12.2891 24.6578C12.6428 23.2582 13.5036 22.3246 14.8132 21.7562C17.2078 20.7169 19.8636 20.2368 22.3972 19.6686C24.4643 19.2049 26.5741 18.7424 28.5541 17.9701C29.2069 17.7155 29.91 17.2037 30.2585 16.5842C30.7418 15.725 31.3342 14.8612 31.7033 13.9481C31.9145 13.4258 32.339 12.6768 32.2164 12.0845C32.1062 11.552 31.7569 11.0865 31.2551 11.306C28.7331 12.4094 26.0285 12.4619 23.3231 12.4619C21.4421 12.4619 19.5954 12.5138 18.0155 13.6709C16.1966 15.003 14.4343 16.48 13.0735 18.2945C12.3634 19.2412 11.3765 20.1807 10.4196 20.8598C10.2716 20.9648 9.7882 21.2534 9.73552 21.4378C9.6792 21.6349 11.7547 20.687 11.8881 20.6239C14.5518 19.3641 17.7013 18.4762 19.8142 16.3424C20.4462 15.7042 21.0982 14.9525 21.5775 14.1958C21.9221 13.6516 22.0208 13.0293 22.2557 12.4383C22.791 11.0919 22.3537 9.60202 22.1731 8.23939C21.9951 6.89581 21.9372 5.58053 21.9372 4.22916C21.9372 3.21985 21.9847 2.30091 21.6719 1.32763C21.5805 1.04333 21.2635 0.244613 21.4773 1.09174C22.3668 4.61708 22.9133 8.33233 21.9608 11.9194C21.196 14.7996 19.1428 18.0411 16.1696 18.9137C14.7549 19.3289 12.803 19.7615 11.3573 19.2145C10.0014 18.7014 8.99058 16.6982 8.36143 15.505C7.54653 13.9595 6.66309 11.9393 6.46247 10.1737C6.38256 9.47056 6.57323 9.43107 7.18195 9.7963C8.29537 10.4644 9.46955 11.0773 10.5317 11.825C12.663 13.3255 14.0413 15.4264 15.4619 17.5573" stroke="white" stroke-width="5"/>
</mask>
<g mask="url(#mask0_19_26)">
<path d="M21.9883 31C23.9294 31 25.5833 30.3206 26.95 28.9617C28.3167 27.6029 29 25.9529 29 24.0117C29 22.0706 28.3206 20.4167 26.9617 19.05C25.6029 17.6833 23.9529 17 22.0117 17C20.0706 17 18.4167 17.6794 17.05 19.0383C15.6833 20.3971 15 22.0471 15 23.9883C15 25.9294 15.6794 27.5833 17.0383 28.95C18.3971 30.3167 20.0471 31 21.9883 31ZM22 34C19.2333 34 16.875 33.025 14.925 31.075C12.975 29.125 12 26.7667 12 24C12 21.2333 12.975 18.875 14.925 16.925C16.875 14.975 19.2333 14 22 14C24.7667 14 27.125 14.975 29.075 16.925C31.025 18.875 32 21.2333 32 24C32 26.7667 31.025 29.125 29.075 31.075C27.125 33.025 24.7667 34 22 34ZM1.5 25.5C1.075 25.5 0.71875 25.3554 0.43125 25.0663C0.14375 24.7771 0 24.4187 0 23.9913C0 23.5638 0.14375 23.2083 0.43125 22.925C0.71875 22.6417 1.075 22.5 1.5 22.5H6.5C6.925 22.5 7.28125 22.6446 7.56875 22.9337C7.85625 23.2229 8 23.5813 8 24.0087C8 24.4362 7.85625 24.7917 7.56875 25.075C7.28125 25.3583 6.925 25.5 6.5 25.5H1.5ZM37.5 25.5C37.075 25.5 36.7188 25.3554 36.4313 25.0663C36.1438 24.7771 36 24.4187 36 23.9913C36 23.5638 36.1438 23.2083 36.4313 22.925C36.7188 22.6417 37.075 22.5 37.5 22.5H42.5C42.925 22.5 43.2813 22.6446 43.5688 22.9337C43.8563 23.2229 44 23.5813 44 24.0087C44 24.4362 43.8563 24.7917 43.5688 25.075C43.2813 25.3583 42.925 25.5 42.5 25.5H37.5ZM21.9913 10C21.5638 10 21.2083 9.85625 20.925 9.56875C20.6417 9.28125 20.5 8.925 20.5 8.5V3.5C20.5 3.075 20.6446 2.71875 20.9337 2.43125C21.2229 2.14375 21.5813 2 22.0087 2C22.4362 2 22.7917 2.14375 23.075 2.43125C23.3583 2.71875 23.5 3.075 23.5 3.5V8.5C23.5 8.925 23.3554 9.28125 23.0663 9.56875C22.7771 9.85625 22.4187 10 21.9913 10ZM21.9913 46C21.5638 46 21.2083 45.8563 20.925 45.569C20.6417 45.2813 20.5 44.925 20.5 44.5V39.5C20.5 39.075 20.6446 38.7188 20.9337 38.4313C21.2229 38.1438 21.5813 38 22.0087 38C22.4362 38 22.7917 38.1438 23.075 38.4313C23.3583 38.7188 23.5 39.075 23.5 39.5V44.5C23.5 44.925 23.3554 45.2813 23.0663 45.569C22.7771 45.8563 22.4187 46 21.9913 46ZM10 14.1L7.15 11.3C6.85 11 6.70618 10.64 6.71855 10.2199C6.73088 9.79972 6.87298 9.44138 7.14485 9.14485C7.44138 8.84828 7.79972 8.7 8.21985 8.7C8.63995 8.7 9 8.85 9.3 9.15L12.1 12C12.3667 12.3 12.5 12.65 12.5 13.05C12.5 13.45 12.3667 13.7917 12.1 14.075C11.8333 14.3583 11.4917 14.5 11.075 14.5C10.6583 14.5 10.3 14.3667 10 14.1ZM34.7 38.85L31.9 36C31.6333 35.7 31.5 35.3438 31.5 34.9313C31.5 34.5188 31.6417 34.175 31.925 33.9C32.2083 33.6 32.55 33.45 32.95 33.45C33.35 33.45 33.7 33.6 34 33.9L36.85 36.7C37.15 37 37.2938 37.3601 37.2815 37.7802C37.2691 38.2003 37.127 38.5586 36.8552 38.8552C36.5586 39.1517 36.2003 39.3 35.7802 39.3C35.3601 39.3 35 39.15 34.7 38.85ZM31.9 14.1C31.6 13.8 31.45 13.45 31.45 13.05C31.45 12.65 31.6 12.3 31.9 12L34.7 9.15C35 8.85 35.3601 8.70618 35.7802 8.71855C36.2003 8.73088 36.5586 8.87298 36.8552 9.14485C37.1517 9.44138 37.3 9.79972 37.3 10.2199C37.3 10.64 37.15 11 36.85 11.3L34 14.1C33.7333 14.3667 33.3939 14.5 32.9818 14.5C32.5697 14.5 32.2091 14.3667 31.9 14.1ZM7.14485 38.8552C6.84828 38.5586 6.7 38.2003 6.7 37.7802C6.7 37.3601 6.85 37 7.15 36.7L10 33.9C10.2933 33.6 10.6417 33.45 11.045 33.45C11.4483 33.45 11.7935 33.6 12.0805 33.9C12.3935 34.2 12.55 34.55 12.55 34.95C12.55 35.35 12.4 35.7 12.1 36L9.3 38.85C9 39.15 8.63995 39.2938 8.21985 39.2815C7.79972 39.2691 7.44138 39.127 7.14485 38.8552Z" fill="#FFEE00"/>
</g>
<path d="M25.55 48C22.6167 48 20.125 46.975 18.075 44.925C16.025 42.875 15 40.3833 15 37.45C15 34.85 15.8333 32.5667 17.5 30.6C19.1667 28.6333 21.2833 27.45 23.85 27.05C24.5167 23.8167 26.0833 21.175 28.55 19.125C31.0167 17.075 33.8667 16.05 37.1 16.05C40.8333 16.05 43.9833 17.4083 46.55 20.125C49.1167 22.8417 50.4 26.1 50.4 29.9V31.1C52.8 31.0333 54.8333 31.8083 56.5 33.425C58.1667 35.0417 59 37.0833 59 39.55C59 41.85 58.1667 43.8333 56.5 45.5C54.8333 47.1667 52.85 48 50.55 48H25.55ZM25.55 45H50.55C52.05 45 53.3333 44.4667 54.4 43.4C55.4667 42.3333 56 41.05 56 39.55C56 38.05 55.4667 36.7667 54.4 35.7C53.3333 34.6333 52.05 34.1 50.55 34.1H47.4V29.9C47.4 26.8667 46.3833 24.3 44.35 22.2C42.3167 20.1 39.8333 19.05 36.9 19.05C33.9667 19.05 31.475 20.1 29.425 22.2C27.375 24.3 26.35 26.8667 26.35 29.9H25.4C23.3333 29.9 21.5833 30.625 20.15 32.075C18.7167 33.525 18 35.3167 18 37.45C18 39.55 18.7333 41.3333 20.2 42.8C21.6667 44.2667 23.45 45 25.55 45Z" fill="black"/>
</svg>
