<svg width="44" height="47" viewBox="0 0 44 47" fill="none" xmlns="http://www.w3.org/2000/svg">
<path d="M9.97047 28.3707C9.71558 28.2781 9.50695 27.9727 9.28908 27.8121C8.90329 27.5279 8.48987 27.2656 8.14114 26.9343C7.74617 26.5591 7.36324 26.162 6.98707 25.7679C6.59109 25.3531 6.16765 24.6287 5.92507 24.1166C5.12443 22.4264 4.97928 20.5439 5.11477 18.6471C5.23305 16.9911 7.6057 16.266 8.9269 16.0197C9.62848 15.8889 10.4391 15.9951 11.1491 15.9951C12.1232 15.9951 13.222 15.4614 13.8501 14.6937C14.0824 14.4099 14.1693 14.0028 14.1693 13.6502C14.1693 13.2529 14.3458 12.9471 14.3842 12.5636C14.4372 12.0338 14.6198 11.4761 14.7894 10.9675C14.8522 10.779 15.4235 9.49864 14.9121 10.3168C14.2201 11.424 13.5537 12.6142 13.0889 13.8343C13.079 13.8604 13.0069 14.4512 12.8679 14.3991C12.7236 14.3449 12.8355 12.6578 12.8495 12.447C12.9412 11.072 13.6965 9.64996 14.4149 8.50593C15.4862 6.79981 18.1138 5.42402 20.087 5.38747C21.3888 5.36337 22.6767 5.27698 23.9851 5.27698C25.0906 5.27698 26.4024 5.41223 27.343 6.05045C28.5739 6.88572 29.2454 8.25954 30.0195 9.47584C30.7351 10.6004 31.4863 12.0707 31.6769 13.4046C31.7707 14.0613 32.0698 14.7929 32.0698 15.4427C32.0698 15.9747 32.0698 16.5067 32.0698 17.0387C32.0698 17.4727 31.8086 19.147 32.1312 19.4696C32.6803 20.0187 33.0029 20.7923 33.7027 21.2499C34.1318 21.5304 34.8399 21.4095 35.3294 21.4095C35.9372 21.4095 36.5449 21.4095 37.1526 21.4095C37.3831 21.4095 37.5521 21.5299 37.791 21.52C37.9146 21.5148 37.4494 21.179 37.3675 21.0289C37.1337 20.6004 36.6204 20.636 36.2134 20.636C35.3145 20.636 34.4989 20.3045 33.4571 20.3045C33.0418 20.3045 31.7966 20.3689 32.8801 20.415C33.5748 20.4446 34.6959 20.8917 35.2128 21.3542C35.7784 21.8603 35.6213 22.527 35.7162 23.2388C35.771 23.6503 36.1472 23.9518 36.4651 24.1719C37.0124 24.5508 37.9418 24.8101 38.3128 25.3873C38.6125 25.8534 39.3471 25.3056 39.559 24.9454C39.6503 24.7901 39.7787 24.6484 39.6695 24.442C39.5029 24.1274 39.0616 25.2006 38.9758 25.2768C38.6586 25.5588 38.4983 25.9624 38.1471 26.2161C37.5637 26.6374 36.8011 26.8564 36.0968 26.9957C35.582 27.0974 35.0239 27.0448 34.5007 27.0448C32.61 27.0448 30.7193 27.0448 28.8285 27.0448C27.4392 27.0448 26.0498 27.0448 24.6604 27.0448C21.9897 27.0448 19.2928 27.1896 16.6494 26.7624C15.0943 26.5111 13.6 25.9047 12.0638 25.7127C11.2184 25.607 10.5454 24.895 9.63899 24.9454C9.26786 24.966 8.64452 25.4124 8.64452 25.8293C8.64452 26.1084 9.81581 26.4215 10.0134 26.48C10.9433 26.7555 12.0498 26.7133 13.0153 26.7133C13.7007 26.7133 14.8456 26.8151 14.464 25.8784C13.4258 23.33 11.6724 21.2536 9.24611 19.973C8.4723 19.5646 8.35682 19.136 8.91462 18.4261C9.10456 18.1843 9.32654 18.2053 9.62671 18.1805C10.4432 18.1131 11.2628 18.077 12.0822 18.1007C13.1294 18.1311 13.7331 18.4116 13.9238 19.5556C14.2006 21.2164 11.2925 21.379 10.2037 21.4709C9.05431 21.5679 7.89104 21.5142 6.74766 21.6857C6.44009 21.7318 6.21951 21.8343 6.45914 22.1338C6.86829 22.6453 7.94074 22.8592 8.52174 22.9687C10.5189 23.345 12.6613 23.2756 14.685 23.2756C17.07 23.2756 19.4002 22.7668 21.769 22.7354C24.3776 22.7009 26.9784 22.6249 29.5897 22.6249C30.2896 22.6249 30.9894 22.6249 31.6892 22.6249C32.0289 22.6249 32.3685 22.6249 32.7082 22.6249C32.892 22.6249 32.5308 22.3335 32.4627 22.2443C31.4362 20.902 29.7174 19.1671 27.8832 19.089C27.1558 19.0581 26.5137 18.8229 26.545 19.6661C26.6024 21.2168 27.5008 21.8827 28.7549 22.6188C29.7104 23.1796 30.8056 23.6194 31.9347 23.6194C32.2882 23.6194 33.2573 23.863 32.9537 23.2879C32.7023 22.8115 32.184 22.4738 31.8488 22.0479C30.7171 20.6103 29.4679 19.3713 28.1656 18.0884C27.391 17.3254 26.7809 16.5371 26.5941 15.4672C26.3376 13.9985 26.4473 12.5623 26.2748 11.0965C26.1445 9.98837 25.8518 9.23693 25.1085 8.39543C24.3424 7.5282 22.5917 7.5974 21.5665 7.5974C18.0365 7.5974 16.6157 11.0667 16.8458 14.129C16.9494 15.5079 17.8598 17.1791 19.0926 17.8736C19.7845 18.2634 20.2876 17.3701 20.5045 16.7195C20.7223 16.0661 20.7512 15.1863 20.793 14.4973C20.8454 13.6322 21.0201 12.7942 21.0201 11.9252C21.0201 11.4996 21.0201 11.074 21.0201 10.6483C21.0201 10.1309 22.9187 10.2069 23.2546 10.323C24.5371 10.7663 24.5581 13.0089 24.3719 14.0799C24.0953 15.6698 22.7021 16.9037 22.297 18.4874C22.0683 19.3812 21.8541 20.3186 21.6892 21.2253C21.4494 22.5443 19.2009 21.7206 18.3682 21.5445C17.4772 21.3561 16.6837 21.0936 15.8943 20.6483C15.6666 20.5198 15.1806 20.382 15.0779 20.1081C14.943 19.7484 15.324 19.22 15.5321 18.9847C16.4863 17.906 18.0432 17.6559 19.3627 17.315C21.1173 16.8616 23.0136 16.6872 24.7279 16.0995C25.7235 15.7581 26.6823 15.2777 27.6499 14.8656C28.4669 14.5176 29.2171 14.0739 30.0317 13.7361C30.8594 13.3929 30.318 13.1585 30.1422 13.4599C29.7376 14.1535 29.46 13.6747 28.7549 13.6747" stroke="#B8A7A7" stroke-width="5"/>
<path d="M33.5063 22.0724C33.6568 21.8574 34.0788 21.7909 34.3043 21.7164C35.022 21.479 35.7164 21.34 36.4651 21.2437C36.9944 21.1756 37.5026 21.0779 38.0366 21.0779C38.4836 21.0779 38.8637 21.2989 39.3073 21.2989C39.5821 21.2989 39.9931 21.5823 40.1913 21.7409C40.6188 22.0829 40.1986 23.4224 39.8046 23.6194" stroke="#B8A7A7" stroke-width="5"/>
<path d="M10.55 31.95C7.61667 31.95 5.125 30.925 3.075 28.875C1.025 26.825 0 24.3333 0 21.4C0 18.8 0.833333 16.5167 2.5 14.55C4.16667 12.5833 6.28333 11.4 8.85 11C9.51667 7.76667 11.0833 5.125 13.55 3.075C16.0167 1.025 18.8667 0 22.1 0C25.8333 0 28.9833 1.35833 31.55 4.075C34.1167 6.79167 35.4 10.05 35.4 13.85V15.05C37.8 14.9833 39.8333 15.7583 41.5 17.375C43.1667 18.9917 44 21.0333 44 23.5C44 25.8 43.1667 27.7833 41.5 29.45C39.8333 31.1167 37.85 31.95 35.55 31.95H10.55ZM10.55 28.95H35.55C37.05 28.95 38.3333 28.4167 39.4 27.35C40.4667 26.2833 41 25 41 23.5C41 22 40.4667 20.7167 39.4 19.65C38.3333 18.5833 37.05 18.05 35.55 18.05H32.4V13.85C32.4 10.8167 31.3833 8.25 29.35 6.15C27.3167 4.05 24.8333 3 21.9 3C18.9667 3 16.475 4.05 14.425 6.15C12.375 8.25 11.35 10.8167 11.35 13.85H10.4C8.33333 13.85 6.58333 14.575 5.15 16.025C3.71667 17.475 3 19.2667 3 21.4C3 23.5 3.73333 25.2833 5.2 26.75C6.66667 28.2167 8.45 28.95 10.55 28.95Z" fill="black"/>
<path d="M11 38.375C10.4458 38.375 9.97396 38.1839 9.58438 37.8018C9.19479 37.4197 9 36.9545 9 36.4062C9 36.1432 9.05104 35.8916 9.15313 35.6514C9.25521 35.4113 9.4 35.1994 9.5875 35.0156L11 33.625L12.4125 35.0156C12.6 35.1994 12.7448 35.4113 12.8469 35.6514C12.949 35.8916 13 36.1432 13 36.4062C13 36.9545 12.8052 37.4197 12.4156 37.8018C12.026 38.1839 11.5542 38.375 11 38.375Z" fill="#448DE2"/>
<path d="M33 38.375C32.4458 38.375 31.974 38.1839 31.5844 37.8018C31.1948 37.4197 31 36.9545 31 36.4062C31 36.1432 31.051 35.8916 31.1531 35.6514C31.2552 35.4113 31.4 35.1994 31.5875 35.0156L33 33.625L34.4125 35.0156C34.6 35.1994 34.7448 35.4113 34.8469 35.6514C34.949 35.8916 35 36.1432 35 36.4062C35 36.9545 34.8052 37.4197 34.4156 37.8018C34.026 38.1839 33.5542 38.375 33 38.375Z" fill="#448DE2"/>
<path d="M28 46.375C27.4458 46.375 26.974 46.1839 26.5844 45.8018C26.1948 45.4197 26 44.9545 26 44.4062C26 44.1432 26.051 43.8916 26.1531 43.6514C26.2552 43.4113 26.4 43.1994 26.5875 43.0156L28 41.625L29.4125 43.0156C29.6 43.1994 29.7448 43.4113 29.8469 43.6514C29.949 43.8916 30 44.1432 30 44.4062C30 44.9545 29.8052 45.4197 29.4156 45.8018C29.026 46.1839 28.5542 46.375 28 46.375Z" fill="#448DE2"/>
<path d="M22 40.375C21.4458 40.375 20.974 40.1839 20.5844 39.8018C20.1948 39.4197 20 38.9545 20 38.4062C20 38.1432 20.051 37.8916 20.1531 37.6514C20.2552 37.4113 20.4 37.1994 20.5875 37.0156L22 35.625L23.4125 37.0156C23.6 37.1994 23.7448 37.4113 23.8469 37.6514C23.949 37.8916 24 38.1432 24 38.4062C24 38.9545 23.8052 39.4197 23.4156 39.8018C23.026 40.1839 22.5542 40.375 22 40.375Z" fill="#448DE2"/>
<path d="M15 46.375C14.4458 46.375 13.974 46.1839 13.5844 45.8018C13.1948 45.4197 13 44.9545 13 44.4062C13 44.1432 13.051 43.8916 13.1531 43.6514C13.2552 43.4113 13.4 43.1994 13.5875 43.0156L15 41.625L16.4125 43.0156C16.6 43.1994 16.7448 43.4113 16.8469 43.6514C16.949 43.8916 17 44.1432 17 44.4062C17 44.9545 16.8052 45.4197 16.4156 45.8018C16.026 46.1839 15.5542 46.375 15 46.375Z" fill="#448DE2"/>
</svg>
