<svg width="44" height="47" viewBox="0 0 44 47" fill="none" xmlns="http://www.w3.org/2000/svg">
<path d="M9.97047 28.3707C9.71558 28.2781 9.50695 27.9727 9.28908 27.8121C8.90329 27.5279 8.48987 27.2656 8.14114 26.9343C7.74617 26.5591 7.36324 26.162 6.98707 25.7679C6.59109 25.3531 6.16765 24.6287 5.92507 24.1166C5.12443 22.4264 4.97928 20.5439 5.11477 18.6471C5.23305 16.9911 7.6057 16.266 8.9269 16.0197C9.62848 15.8889 10.4391 15.9951 11.1491 15.9951C12.1232 15.9951 13.222 15.4614 13.8501 14.6937C14.0824 14.4099 14.1693 14.0028 14.1693 13.6502C14.1693 13.2529 14.3458 12.9471 14.3842 12.5636C14.4372 12.0338 14.6198 11.4761 14.7894 10.9675C14.8522 10.779 15.4235 9.49864 14.9121 10.3168C14.2201 11.424 13.5537 12.6142 13.0889 13.8343C13.079 13.8604 13.0069 14.4512 12.8679 14.3991C12.7236 14.3449 12.8355 12.6578 12.8495 12.447C12.9412 11.072 13.6965 9.64996 14.4149 8.50593C15.4862 6.79981 18.1138 5.42402 20.087 5.38747C21.3888 5.36337 22.6767 5.27698 23.9851 5.27698C25.0906 5.27698 26.4024 5.41223 27.343 6.05045C28.5739 6.88572 29.2454 8.25954 30.0195 9.47584C30.7351 10.6004 31.4863 12.0707 31.6769 13.4046C31.7707 14.0613 32.0698 14.7929 32.0698 15.4427C32.0698 15.9747 32.0698 16.5067 32.0698 17.0387C32.0698 17.4727 31.8086 19.147 32.1312 19.4696C32.6803 20.0187 33.0029 20.7923 33.7027 21.2499C34.1318 21.5304 34.8399 21.4095 35.3294 21.4095C35.9372 21.4095 36.5449 21.4095 37.1526 21.4095C37.3831 21.4095 37.5521 21.5299 37.791 21.52C37.9146 21.5148 37.4494 21.179 37.3675 21.0289C37.1337 20.6004 36.6204 20.636 36.2134 20.636C35.3145 20.636 34.4989 20.3045 33.4571 20.3045C33.0418 20.3045 31.7966 20.3689 32.8801 20.415C33.5748 20.4446 34.6959 20.8917 35.2128 21.3542C35.7784 21.8603 35.6213 22.527 35.7162 23.2388C35.771 23.6503 36.1472 23.9518 36.4651 24.1719C37.0124 24.5508 37.9418 24.8101 38.3128 25.3873C38.6125 25.8534 39.3471 25.3056 39.559 24.9454C39.6503 24.7901 39.7787 24.6484 39.6695 24.442C39.5029 24.1274 39.0616 25.2006 38.9758 25.2768C38.6586 25.5588 38.4983 25.9624 38.1471 26.2161C37.5637 26.6374 36.8011 26.8564 36.0968 26.9957C35.582 27.0974 35.0239 27.0448 34.5007 27.0448C32.61 27.0448 30.7193 27.0448 28.8285 27.0448C27.4392 27.0448 26.0498 27.0448 24.6604 27.0448C21.9897 27.0448 19.2928 27.1896 16.6494 26.7624C15.0943 26.5111 13.6 25.9047 12.0638 25.7127C11.2184 25.607 10.5454 24.895 9.63899 24.9454C9.26786 24.966 8.64452 25.4124 8.64452 25.8293C8.64452 26.1084 9.81581 26.4215 10.0134 26.48C10.9433 26.7555 12.0498 26.7133 13.0153 26.7133C13.7007 26.7133 14.8456 26.8151 14.464 25.8784C13.4258 23.33 11.6724 21.2536 9.24611 19.973C8.4723 19.5646 8.35682 19.136 8.91462 18.4261C9.10456 18.1843 9.32654 18.2053 9.62671 18.1805C10.4432 18.1131 11.2628 18.077 12.0822 18.1007C13.1294 18.1311 13.7331 18.4116 13.9238 19.5556C14.2006 21.2164 11.2925 21.379 10.2037 21.4709C9.05431 21.5679 7.89104 21.5142 6.74766 21.6857C6.44009 21.7318 6.21951 21.8343 6.45914 22.1338C6.86829 22.6453 7.94074 22.8592 8.52174 22.9687C10.5189 23.345 12.6613 23.2756 14.685 23.2756C17.07 23.2756 19.4002 22.7668 21.769 22.7354C24.3776 22.7009 26.9784 22.6249 29.5897 22.6249C30.2896 22.6249 30.9894 22.6249 31.6892 22.6249C32.0289 22.6249 32.3685 22.6249 32.7082 22.6249C32.892 22.6249 32.5308 22.3335 32.4627 22.2443C31.4362 20.902 29.7174 19.1671 27.8832 19.089C27.1558 19.0581 26.5137 18.8229 26.545 19.6661C26.6024 21.2168 27.5008 21.8827 28.7549 22.6188C29.7104 23.1796 30.8056 23.6194 31.9347 23.6194C32.2882 23.6194 33.2573 23.863 32.9537 23.2879C32.7023 22.8115 32.184 22.4738 31.8488 22.0479C30.7171 20.6103 29.4679 19.3713 28.1656 18.0884C27.391 17.3254 26.7809 16.5371 26.5941 15.4672C26.3376 13.9985 26.4473 12.5623 26.2748 11.0965C26.1445 9.98837 25.8518 9.23693 25.1085 8.39543C24.3424 7.5282 22.5917 7.5974 21.5665 7.5974C18.0365 7.5974 16.6157 11.0667 16.8458 14.129C16.9494 15.5079 17.8598 17.1791 19.0926 17.8736C19.7845 18.2634 20.2876 17.3701 20.5045 16.7195C20.7223 16.0661 20.7512 15.1863 20.793 14.4973C20.8454 13.6322 21.0201 12.7942 21.0201 11.9252C21.0201 11.4996 21.0201 11.074 21.0201 10.6483C21.0201 10.1309 22.9187 10.2069 23.2546 10.323C24.5371 10.7663 24.5581 13.0089 24.3719 14.0799C24.0953 15.6698 22.7021 16.9037 22.297 18.4874C22.0683 19.3812 21.8541 20.3186 21.6892 21.2253C21.4494 22.5443 19.2009 21.7206 18.3682 21.5445C17.4772 21.3561 16.6837 21.0936 15.8943 20.6483C15.6666 20.5198 15.1806 20.382 15.0779 20.1081C14.943 19.7484 15.324 19.22 15.5321 18.9847C16.4863 17.906 18.0432 17.6559 19.3627 17.315C21.1173 16.8616 23.0136 16.6872 24.7279 16.0995C25.7235 15.7581 26.6823 15.2777 27.6499 14.8656C28.4669 14.5176 29.2171 14.0739 30.0317 13.7361C30.8594 13.3929 30.318 13.1585 30.1422 13.4599C29.7376 14.1535 29.46 13.6747 28.7549 13.6747" stroke="#B8A7A7" stroke-width="5"/>
<path d="M33.5063 22.0724C33.6568 21.8574 34.0788 21.7909 34.3043 21.7164C35.022 21.479 35.7164 21.34 36.4651 21.2437C36.9944 21.1756 37.5026 21.0779 38.0366 21.0779C38.4836 21.0779 38.8637 21.2989 39.3073 21.2989C39.5821 21.2989 39.9931 21.5823 40.1913 21.7409C40.6188 22.0829 40.1986 23.4224 39.8046 23.6194" stroke="#B8A7A7" stroke-width="5"/>
<path d="M10.55 31.95C7.61667 31.95 5.125 30.925 3.075 28.875C1.025 26.825 0 24.3333 0 21.4C0 18.8 0.833333 16.5167 2.5 14.55C4.16667 12.5833 6.28333 11.4 8.85 11C9.51667 7.76667 11.0833 5.125 13.55 3.075C16.0167 1.025 18.8667 0 22.1 0C25.8333 0 28.9833 1.35833 31.55 4.075C34.1167 6.79167 35.4 10.05 35.4 13.85V15.05C37.8 14.9833 39.8333 15.7583 41.5 17.375C43.1667 18.9917 44 21.0333 44 23.5C44 25.8 43.1667 27.7833 41.5 29.45C39.8333 31.1167 37.85 31.95 35.55 31.95H10.55ZM10.55 28.95H35.55C37.05 28.95 38.3333 28.4167 39.4 27.35C40.4667 26.2833 41 25 41 23.5C41 22 40.4667 20.7167 39.4 19.65C38.3333 18.5833 37.05 18.05 35.55 18.05H32.4V13.85C32.4 10.8167 31.3833 8.25 29.35 6.15C27.3167 4.05 24.8333 3 21.9 3C18.9667 3 16.475 4.05 14.425 6.15C12.375 8.25 11.35 10.8167 11.35 13.85H10.4C8.33333 13.85 6.58333 14.575 5.15 16.025C3.71667 17.475 3 19.2667 3 21.4C3 23.5 3.73333 25.2833 5.2 26.75C6.66667 28.2167 8.45 28.95 10.55 28.95Z" fill="black"/>
<path d="M11 38.375C10.4458 38.375 9.97396 38.1839 9.58438 37.8018C9.19479 37.4197 9 36.9545 9 36.4062C9 36.1432 9.05104 35.8916 9.15313 35.6514C9.25521 35.4113 9.4 35.1994 9.5875 35.0156L11 33.625L12.4125 35.0156C12.6 35.1994 12.7448 35.4113 12.8469 35.6514C12.949 35.8916 13 36.1432 13 36.4062C13 36.9545 12.8052 37.4197 12.4156 37.8018C12.026 38.1839 11.5542 38.375 11 38.375Z" fill="#448DE2"/>
<path d="M33 38.375C32.4458 38.375 31.974 38.1839 31.5844 37.8018C31.1948 37.4197 31 36.9545 31 36.4062C31 36.1432 31.051 35.8916 31.1531 35.6514C31.2552 35.4113 31.4 35.1994 31.5875 35.0156L33 33.625L34.4125 35.0156C34.6 35.1994 34.7448 35.4113 34.8469 35.6514C34.949 35.8916 35 36.1432 35 36.4062C35 36.9545 34.8052 37.4197 34.4156 37.8018C34.026 38.1839 33.5542 38.375 33 38.375Z" fill="#448DE2"/>
<path d="M28 46.375C27.4458 46.375 26.974 46.1839 26.5844 45.8018C26.1948 45.4197 26 44.9545 26 44.4062C26 44.1432 26.051 43.8916 26.1531 43.6514C26.2552 43.4113 26.4 43.1994 26.5875 43.0156L28 41.625L29.4125 43.0156C29.6 43.1994 29.7448 43.4113 29.8469 43.6514C29.949 43.8916 30 44.1432 30 44.4062C30 44.9545 29.8052 45.4197 29.4156 45.8018C29.026 46.1839 28.5542 46.375 28 46.375Z" fill="#448DE2"/>
<path d="M22 40.375C21.4458 40.375 20.974 40.1839 20.5844 39.8018C20.1948 39.4197 20 38.9545 20 38.4062C20 38.1432 20.051 37.8916 20.1531 37.6514C20.2552 37.4113 20.4 37.1994 20.5875 37.0156L22 35.625L23.4125 37.0156C23.6 37.1994 23.7448 37.4113 23.8469 37.6514C23.949 37.8916 24 38.1432 24 38.4062C24 38.9545 23.8052 39.4197 23.4156 39.8018C23.026 40.1839 22.5542 40.375 22 40.375Z" fill="#448DE2"/>
<path d="M15 46.375C14.4458 46.375 13.974 46.1839 13.5844 45.8018C13.1948 45.4197 13 44.9545 13 44.4062C13 44.1432 13.051 43.8916 13.1531 43.6514C13.2552 43.4113 13.4 43.1994 13.5875 43.0156L15 41.625L16.4125 43.0156C16.6 43.1994 16.7448 43.4113 16.8469 43.6514C16.949 43.8916 17 44.1432 17 44.4062C17 44.9545 16.8052 45.4197 16.4156 45.8018C16.026 46.1839 15.5542 46.375 15 46.375Z" fill="#448DE2"/>
<path d="M26.9643 38.1841C26.9643 37.7476 26.8847 37.3258 26.897 36.8751C26.9063 36.532 27.0439 36.2189 27.0952 35.9154C27.1563 35.5538 27.162 35.7568 27.1662 36.0581C27.1713 36.4188 27.1662 36.7801 27.1662 37.1408C27.1662 37.543 27.1166 37.6956 26.9643 38.0463C26.9173 38.1545 26.79 38.3796 26.71 38.4498C26.5126 38.623 26.8019 37.6619 26.8521 37.564C27.0293 37.2185 27.1585 36.7236 27.2635 36.3288C27.309 36.1575 27.2817 35.9189 27.4019 35.7924C28.0369 35.124 27.4499 36.6534 27.3159 36.9932C27.2393 37.1873 27.1064 37.8073 27.1064 37.5886C27.1064 36.8189 28.0994 35.9645 28.479 35.6349C29.1605 35.0433 30.1958 34.6165 30.1958 33.4007C30.1958 33.1661 30.1958 32.9315 30.1958 32.6969C30.1958 32.4507 30.3525 32.3466 30.4015 32.1211C30.4207 32.0325 30.653 31.8347 30.7119 31.7865C31.0292 31.5267 31.4027 31.2155 31.6619 30.8613C31.7202 30.7817 31.811 30.2382 31.6918 30.4578C31.394 31.0063 30.9804 31.4223 30.6633 31.944C30.23 32.6566 29.6347 33.3733 29.0887 33.9322C28.721 34.3084 28.3938 34.7548 28.0489 35.1674C27.6025 35.7013 28.1185 35.2601 28.3145 35.0345C28.6859 34.6069 28.855 34.0644 29.171 33.5778C29.478 33.105 29.9325 32.8343 30.2631 32.3869C30.5952 31.9374 30.8174 31.3328 31.1645 30.8761C31.4549 30.4939 32.7272 30.3003 32.3164 30.3003C31.8965 30.3003 31.4757 30.2885 31.056 30.3003C30.7606 30.3086 30.4786 30.4392 30.192 30.5168C29.4959 30.7054 28.783 30.5907 28.0826 30.7038C27.4341 30.8086 26.8039 31.0648 26.2013 31.2747C25.7013 31.4488 25.2329 31.6403 24.7426 31.8456C24.1432 32.0965 24.9648 31.0547 25.0793 30.8515C25.2724 30.5084 25.4585 30.146 25.6552 29.8131C25.8411 29.4986 25.8219 29.122 26.0218 28.8436C26.13 28.6928 26.1328 28.434 26.2275 28.2678C26.3526 28.0484 26.4438 27.8482 26.5267 27.5936C26.5879 27.4057 26.5866 27.198 26.6426 27.0227C26.71 26.8123 26.8207 26.8208 26.882 26.6684C26.9768 26.4328 27.3223 26.1551 27.3645 25.9056C27.3998 25.6966 27.6516 25.282 27.8395 25.2511C27.9484 25.2332 28.1296 24.7206 28.2097 24.5917C28.3916 24.2991 28.6035 24.1055 28.7969 23.7944C28.9791 23.5014 29.1186 23.3906 29.1186 22.9923C29.1186 22.2223 29.1751 24.5305 29.1859 25.3003C29.1933 25.8218 29.231 26.3233 29.0513 26.7964C28.8697 27.2741 28.7276 27.7299 28.6473 28.258C28.5566 28.8548 28.5127 29.3532 28.5127 29.9656C28.5127 30.1362 28.5127 30.3069 28.5127 30.4775C28.5127 30.7401 28.5127 30.3419 28.5127 30.3003C28.5127 29.8623 28.5127 29.4243 28.5127 28.9863C28.5127 27.9444 28.438 26.8472 28.5277 25.8121C28.5672 25.3549 28.6618 24.9059 28.7109 24.4539C28.7812 23.8062 28.6231 25.7666 28.479 26.3928C28.2787 27.2639 28.0713 28.1024 27.7722 28.9223C27.6414 29.2808 27.5574 29.6614 27.4094 30.0099C27.3711 30.1001 27.2849 30.421 27.4206 30.1723C27.8238 29.4333 28.1183 28.2244 28.2023 27.3279C28.2121 27.2233 28.35 25.9302 28.206 25.8761C28.0428 25.8148 27.2953 27.7333 27.1812 27.9972C26.9157 28.6113 26.8265 29.3054 26.5304 29.9066C26.5007 29.9669 26.2374 30.5105 26.3733 30.2806C26.7567 29.6321 27.1817 28.8018 27.3869 28.0218C27.4248 27.8778 27.1964 28.202 27.1251 28.322C26.8968 28.7061 26.6888 29.1026 26.4781 29.503C26.2848 29.8704 26.1017 30.238 25.932 30.6251C25.8335 30.8499 25.9363 30.774 26.0442 30.6546C26.4922 30.159 26.7388 29.2992 26.9942 28.6271C27.2072 28.0665 27.1756 27.8847 27.2635 28.6615C27.3076 29.0508 27.1345 31.1987 27.7722 30.7432C28.0291 30.5596 28.2203 30.0007 28.3033 29.6458C28.3601 29.4027 28.348 29.1973 28.206 29.503C28.0197 29.9042 27.9301 30.6546 27.5029 30.6546C27.1431 30.6546 26.9812 30.4807 26.695 30.2117C26.3394 29.8775 25.882 31.0725 26.1976 31.2255C26.4831 31.3639 27.1744 31.0591 27.4056 31.3633C27.6171 31.6415 27.5029 32.5902 27.5029 33.002C27.5029 33.4422 27.1057 32.7672 26.9942 32.6428C26.9539 32.5978 26.2804 31.7002 26.2836 31.6979C26.8956 31.255 27.6803 31.4336 27.8021 32.441C27.9054 33.2953 27.6326 34.174 27.4355 34.9755C27.3793 35.2044 27.2424 35.3525 27.1775 35.566C27.1407 35.6869 27.1747 35.8242 27.0989 35.9302C26.3209 37.0179 28.2068 33.2842 28.9914 32.2048C29.1998 31.9182 29.4487 31.6923 29.6572 31.4026C29.9125 31.048 29.9537 31.3106 29.9115 31.7668C29.8366 32.5778 29.4279 33.0513 29.0999 33.6861C28.9905 33.8978 29.0163 33.8082 29.1261 33.6566C29.4248 33.2438 29.6789 32.8189 29.8816 32.3131C29.9161 32.227 30.3167 31.3747 30.0312 31.3633C29.7751 31.3531 29.4989 31.4519 29.2308 31.4519C28.7508 31.4519 28.2708 31.4519 27.7909 31.4519C27.3422 31.4519 27.872 31.6383 28.0377 31.7274C28.3819 31.9127 28.6171 32.3454 28.9017 32.6526C29.1529 32.9238 28.4612 32.368 28.3631 32.318C27.9995 32.1328 27.9423 31.991 28.2023 31.5208C28.4416 31.0877 28.7657 30.7385 29.0363 30.3397C29.1114 30.229 29.1722 30.1231 29.2906 30.1231C29.5038 30.1231 30.1396 30.2117 29.9265 30.2117C29.5636 30.2117 29.1878 30.0004 28.8942 29.7245C28.7195 29.5603 29.3229 29.7595 29.5375 29.7688C29.7044 29.776 30.0186 29.8015 30.1284 29.946" stroke="#FFEE00" stroke-width="2"/>
<path d="M30.3977 30.9204C30.5209 30.9204 31.1383 30.9482 30.7493 31.0188C30.3032 31.0998 29.828 31.3071 29.3879 31.4519" stroke="#FFEE00" stroke-width="2"/>
<path d="M26.7781 38.7031L32.3 29.9791H28.7375L29.45 22.5312L24.4427 32.0625H27.4906L26.7781 38.7031ZM25.3333 40.9166L26.125 33.625H22.1667L29.2917 20.0833H30.875L30.0833 28.4166H34.8333L26.9167 40.9166H25.3333Z" fill="black"/>
</svg>
